<?xml version="1.0" standalone="no"?><!DOCTYPE svg PUBLIC "-//W3C//DTD SVG 1.1//EN" "http://www.w3.org/Graphics/SVG/1.1/DTD/svg11.dtd"><svg t="1582813935375" class="icon" viewBox="0 0 1024 1024" version="1.1" xmlns="http://www.w3.org/2000/svg" p-id="3617" xmlns:xlink="http://www.w3.org/1999/xlink" width="200" height="200"><defs><style type="text/css"></style></defs><path d="M775.68 194.56H256s-58.88-5.12-64 53.76v376.32s2.56 48.64 56.32 53.76h168.96s74.24 133.12 89.6 133.12c20.48 2.56 89.6-133.12 89.6-133.12h181.76s48.64 10.24 56.32-43.52V248.32c-2.56 0-2.56-48.64-58.88-53.76m5.12 92.16v320c-2.56 23.04-20.48 20.48-20.48 20.48h-174.08c-12.8 0-25.6 23.04-25.6 23.04l-56.32 89.6s-56.32-102.4-64-110.08c-7.68-7.68-12.8-5.12-12.8-5.12h-163.84c-25.6-2.56-20.48-25.6-20.48-25.6V258.56c2.56-20.48 23.04-17.92 23.04-17.92h494.08c23.04 0 20.48 46.08 20.48 46.08m-432.64 58.88h304.64v51.2H348.16v-51.2m0 128h304.64v48.64H348.16v-48.64" p-id="3618" fill="#ffffff"></path></svg>