<?xml version="1.0" standalone="no"?><!DOCTYPE svg PUBLIC "-//W3C//DTD SVG 1.1//EN" "http://www.w3.org/Graphics/SVG/1.1/DTD/svg11.dtd"><svg t="1582813564891" class="icon" viewBox="0 0 1024 1024" version="1.1" xmlns="http://www.w3.org/2000/svg" p-id="2906" xmlns:xlink="http://www.w3.org/1999/xlink" width="200" height="200"><defs><style type="text/css"></style></defs><path d="M794.696 79.772h-566.08c-110.246 0-199.795 89.414-199.795 199.711V745.83c0 110.32 89.452 199.713 199.795 199.713h566.08c110.246 0 199.794-89.414 199.794-199.713V279.483c0-110.32-89.451-199.711-199.794-199.711zM927.892 745.83c0 73.473-59.686 133.115-133.197 133.115h-566.08c-73.576 0-133.196-59.59-133.196-133.115V279.483c0-73.472 59.687-133.114 133.197-133.114h566.08c73.577 0 133.196 59.59 133.196 133.114v466.348z" p-id="2907" fill="#ffffff"></path><path d="M678.24 455.901c-75.74-48.07-162.057-104.373-237.333-150.446-37.473-22.937-62.446-0.506-62.446 37.963v335.778c0 46.783 24.665 62.126 62.682 39.835 81.974-48.064 178-108.144 248.2-160.497 35.448-26.438 25.72-79.258-11.104-102.633zM445.056 639.253V386.35c23.424 14.647 181.326 115.515 196.098 124.894-51.925 38.074-121.019 82.921-196.098 128.01z" p-id="2908" fill="#ffffff"></path></svg>